Coordinates
version=1
nRows=18
nColumns=34
inDegrees=no

Units are S.I. units (second, meters, Newtons, ...)
If the header above contains a line with 'inDegrees', this indicates whether rotational values are in degrees (yes) or radians (no).

endheader
time	pelvis_tilt	pelvis_list	pelvis_rotation	pelvis_tx	pelvis_ty	pelvis_tz	hip_flexion_r	hip_adduction_r	hip_rotation_r	knee_angle_r	ankle_angle_r	subtalar_angle_r	mtp_angle_r	hip_flexion_l	hip_adduction_l	hip_rotation_l	knee_angle_l	ankle_angle_l	subtalar_angle_l	mtp_angle_l	lumbar_extension	lumbar_bending	lumbar_rotation	arm_flex_r	arm_add_r	arm_rot_r	elbow_flex_r	pro_sup_r	arm_flex_l	arm_add_l	arm_rot_l	elbow_flex_l	pro_sup_l
0	0.197005	0.0268739	0.162472	-0.209905	0.881295	-0.253253	0.260296	-0.0208153	-0.13504	-0.0147478	0.125728	0.0304537	-0.0836878	-0.539796	-0.00544147	-0.174543	0.129313	0.418258	0.327604	-0.0838712	-0.480932	0.0605308	-0.27904	0.0256295	-0.174882	-0.0199228	0.365321	0.98971	0.624326	-0.301473	0.26244	0.773584	1.28324
0.01	0.19851	0.0165413	0.169779	-0.192633	0.881585	-0.253921	0.254392	-0.00769924	-0.135398	-0.00712742	0.0836327	0.00276853	-0.0836851	-0.545147	-0.0293053	-0.201386	0.161397	0.428934	0.357013	-0.0838684	-0.478222	0.0769138	-0.276893	0.021383	-0.176785	-0.0261028	0.355995	0.991026	0.620539	-0.297987	0.266264	0.780655	1.28692
0.02	0.201862	0.00551887	0.175545	-0.175233	0.882101	-0.254385	0.248837	0.00678965	-0.136568	0.00668234	0.0430051	-0.027404	-0.0836824	-0.550149	-0.0540112	-0.226951	0.196908	0.428441	0.378013	-0.0838656	-0.477333	0.0934203	-0.27268	0.0178488	-0.178824	-0.0306464	0.346762	0.992179	0.614639	-0.294344	0.269629	0.786543	1.29069
0.03	0.207022	-0.00616918	0.179769	-0.157714	0.882841	-0.254647	0.243614	0.0226039	-0.138505	0.0265786	0.00403342	-0.0598715	-0.0836796	-0.554718	-0.079497	-0.251075	0.235868	0.416662	0.390321	-0.0838628	-0.478229	0.110005	-0.266415	0.0150428	-0.180991	-0.0335335	0.337617	0.993163	0.606635	-0.290543	0.272536	0.791226	1.29453
0.04	0.213838	-0.018452	0.18245	-0.140092	0.883804	-0.254706	0.238678	0.0396069	-0.141093	0.0522246	-0.0327175	-0.0940598	-0.0836769	-0.558561	-0.105595	-0.273326	0.278363	0.393324	0.393162	-0.08386	-0.480777	0.126542	-0.258153	0.0130061	-0.183269	-0.0347047	0.328543	0.993957	0.59656	-0.28658	0.274982	0.794631	1.29842
0.05	0.221989	-0.0312079	0.1836	-0.122404	0.884978	-0.254566	0.233997	0.0575456	-0.144166	0.0829652	-0.0662049	-0.128893	-0.0836742	-0.561074	-0.132023	-0.293025	0.324534	0.358104	0.385336	-0.0838572	-0.484714	0.142821	-0.248001	0.0118362	-0.185623	-0.0340476	0.319524	0.994539	0.584508	-0.282447	0.276962	0.796628	1.30228
0.06	0.230943	-0.0442705	0.183261	-0.104713	0.88634	-0.254237	0.229617	0.0760427	-0.147589	0.117833	-0.0949631	-0.162774	-0.0836715	-0.561279	-0.15841	-0.309385	0.374568	0.310895	0.365551	-0.0838544	-0.489632	0.158572	-0.236139	0.011698	-0.188008	-0.0314071	0.310563	0.994893	0.570674	-0.278129	0.278463	0.797036	1.30604
0.07	0.239963	-0.0574442	0.181513	-0.0871094	0.88785	-0.253732	0.225692	0.0946176	-0.151337	0.15559	-0.117315	-0.193684	-0.0836687	-0.557862	-0.184364	-0.321707	0.428668	0.252158	0.332934	-0.0838516	-0.494971	0.1735	-0.222824	0.0128095	-0.190378	-0.0266202	0.301706	0.995027	0.555345	-0.273599	0.279464	0.79564	1.30958
0.08	0.24817	-0.070524	0.178489	-0.0697034	0.889452	-0.253075	0.222457	0.112738	-0.155533	0.194769	-0.131694	-0.219419	-0.083666	-0.549315	-0.209528	-0.329542	0.486984	0.183296	0.287579	-0.0838488	-0.500058	0.187325	-0.208384	0.0154057	-0.192691	-0.0195667	0.293069	0.994992	0.538882	-0.268824	0.27993	0.792207	1.31276
0.09	0.254681	-0.0833137	0.174371	-0.0526038	0.891082	-0.252293	0.220111	0.129894	-0.160402	0.233733	-0.136989	-0.237936	-0.0836633	-0.53419	-0.233616	-0.332768	0.549492	0.106904	0.23095	-0.083846	-0.504196	0.199824	-0.193202	0.0196912	-0.194922	-0.0102237	0.284856	0.994887	0.521673	-0.26376	0.279821	0.786519	1.31538
0.1	0.258785	-0.0956339	0.169391	-0.0358982	0.892677	-0.25142	0.21866	0.14568	-0.166153	0.270763	-0.132848	-0.247753	-0.0836606	-0.511428	-0.256401	-0.33155	0.615858	0.0268227	0.166021	-0.0838432	-0.506801	0.210851	-0.177675	0.0257896	-0.197059	0.00129279	0.277366	0.994864	0.504091	-0.258368	0.279099	0.778392	1.31722
0.11	0.260131	-0.107315	0.16381	-0.0196347	0.894199	-0.250492	0.217755	0.159858	-0.172816	0.30418	-0.119837	-0.248301	-0.0836578	-0.480666	-0.27765	-0.326216	0.685301	-0.0521088	0.097033	-0.0838404	-0.507554	0.220332	-0.162174	0.0337048	-0.199102	0.0147186	0.270972	0.99512	0.486457	-0.252621	0.277742	0.767703	1.31798
0.12	0.258825	-0.118176	0.157904	-0.00381745	0.895639	-0.249542	0.216644	0.172374	-0.180131	0.332511	-0.099429	-0.240141	-0.0836551	-0.442389	-0.297035	-0.317079	0.756561	-0.124624	0.0288415	-0.0838376	-0.506498	0.228232	-0.147017	0.043312	-0.201058	0.0296878	0.266089	0.995865	0.469018	-0.246526	0.275762	0.754401	1.31736
0.13	0.255356	-0.128012	0.151948	0.011584	0.897016	-0.248596	0.214323	0.183307	-0.18755	0.35464	-0.0737612	-0.224847	-0.0836524	-0.397764	-0.314129	-0.304393	0.828052	-0.185728	-0.0337462	-0.0838348	-0.503977	0.23453	-0.132459	0.0543755	-0.202928	0.0457773	0.263127	0.997297	0.45195	-0.240127	0.273197	0.738529	1.31503
0.14	0.250435	-0.136604	0.146189	0.0266106	0.89839	-0.247671	0.209765	0.192807	-0.194336	0.369929	-0.0452557	-0.204665	-0.0836497	-0.348369	-0.328451	-0.288406	0.898069	-0.231405	-0.0865854	-0.083832	-0.500518	0.239186	-0.11869	0.0665835	-0.204702	0.0625484	0.262442	0.999578	0.435361	-0.233514	0.270103	0.720239	1.31066
0.15	0.24482	-0.143736	0.140824	0.041306	0.899834	-0.246786	0.202133	0.20103	-0.199708	0.378263	-0.0162344	-0.182074	-0.083647	-0.295906	-0.339549	-0.269441	0.964971	-0.259228	-0.126698	-0.0838292	-0.496688	0.24214	-0.105835	0.0795882	-0.206359	0.0795787	0.2643	1.00283	0.419295	-0.226816	0.26653	0.699794	1.30396
0.16	0.239175	-0.149232	0.135975	0.0557104	0.90143	-0.245961	0.19091	0.208093	-0.202982	0.380013	0.0113903	-0.159367	-0.0836442	-0.241988	-0.347071	-0.247983	1.02731	-0.268695	-0.152596	-0.0838264	-0.492985	0.243311	-0.0939505	0.0930424	-0.20787	0.0964815	0.268842	1.00713	0.403742	-0.220185	0.262509	0.677559	1.29468
0.17	0.233988	-0.152984	0.131674	0.0698736	0.903205	-0.245193	0.17595	0.214053	-0.203675	0.375941	0.0362963	-0.138332	-0.0836415	-0.188011	-0.350828	-0.224715	1.08388	-0.261241	-0.164376	-0.0838236	-0.489771	0.242618	-0.0830156	0.10663	-0.20921	0.11291	0.276075	1.01254	0.388638	-0.213786	0.258043	0.653981	1.2827
